<mxfile host="app.diagrams.net" modified="2023-06-10T11:36:09.938Z" agent="Mozilla/5.0 (Windows NT 10.0; Win64; x64) AppleWebKit/537.36 (KHTML, like Gecko) Chrome/114.0.0.0 Safari/537.36" etag="OohN8sqrnR3DpkFh1_b0" version="21.3.7" type="device" pages="4">
  <diagram id="lOR7t5UF7OuBumJfP3vu" name="Agnostic Architecture">
    <mxGraphModel dx="1434" dy="819" grid="1" gridSize="10" guides="1" tooltips="1" connect="1" arrows="1" fold="1" page="1" pageScale="1" pageWidth="827" pageHeight="1169" math="0" shadow="0">
      <root>
        <mxCell id="0" />
        <mxCell id="1" parent="0" />
        <mxCell id="ExoZP2pjm8xdC1mCLj1y-17" value="" style="rounded=0;whiteSpace=wrap;html=1;strokeWidth=1;fillColor=#f5f5f5;fontColor=#333333;strokeColor=#666666;" parent="1" vertex="1">
          <mxGeometry x="30" y="200" width="860" height="440" as="geometry" />
        </mxCell>
        <mxCell id="ExoZP2pjm8xdC1mCLj1y-16" value="" style="rounded=0;whiteSpace=wrap;html=1;dashed=1;dashPattern=1 2;fillColor=none;strokeColor=#b85450;strokeWidth=2;" parent="1" vertex="1">
          <mxGeometry x="450" y="230" width="200" height="390" as="geometry" />
        </mxCell>
        <mxCell id="ExoZP2pjm8xdC1mCLj1y-2" value="&lt;b&gt;Mediator&lt;/b&gt;&lt;br&gt;&lt;br&gt;Connections to disjoint data w/out semantics&lt;br&gt;+&lt;br&gt;Transformation steps towards aggregated data w/out semantics" style="rounded=0;whiteSpace=wrap;html=1;" parent="1" vertex="1">
          <mxGeometry x="180" y="250" width="160" height="350" as="geometry" />
        </mxCell>
        <mxCell id="ExoZP2pjm8xdC1mCLj1y-11" value="read" style="edgeStyle=orthogonalEdgeStyle;rounded=0;orthogonalLoop=1;jettySize=auto;html=1;entryX=0.013;entryY=0.143;entryDx=0;entryDy=0;entryPerimeter=0;endArrow=none;endFill=0;startArrow=open;startFill=0;dashed=1;" parent="1" source="ExoZP2pjm8xdC1mCLj1y-3" target="ExoZP2pjm8xdC1mCLj1y-2" edge="1">
          <mxGeometry relative="1" as="geometry" />
        </mxCell>
        <mxCell id="ExoZP2pjm8xdC1mCLj1y-3" value="Data Source 1" style="shape=datastore;whiteSpace=wrap;html=1;" parent="1" vertex="1">
          <mxGeometry x="60" y="270" width="60" height="60" as="geometry" />
        </mxCell>
        <mxCell id="ExoZP2pjm8xdC1mCLj1y-12" value="read" style="edgeStyle=orthogonalEdgeStyle;rounded=0;orthogonalLoop=1;jettySize=auto;html=1;entryX=0.006;entryY=0.343;entryDx=0;entryDy=0;entryPerimeter=0;endArrow=none;endFill=0;startArrow=open;startFill=0;dashed=1;" parent="1" source="ExoZP2pjm8xdC1mCLj1y-4" target="ExoZP2pjm8xdC1mCLj1y-2" edge="1">
          <mxGeometry relative="1" as="geometry" />
        </mxCell>
        <mxCell id="ExoZP2pjm8xdC1mCLj1y-4" value="Data Source ..." style="shape=datastore;whiteSpace=wrap;html=1;" parent="1" vertex="1">
          <mxGeometry x="60" y="340" width="60" height="60" as="geometry" />
        </mxCell>
        <mxCell id="ExoZP2pjm8xdC1mCLj1y-14" value="read" style="edgeStyle=orthogonalEdgeStyle;rounded=0;orthogonalLoop=1;jettySize=auto;html=1;exitX=1;exitY=0.5;exitDx=0;exitDy=0;entryX=0;entryY=0.543;entryDx=0;entryDy=0;entryPerimeter=0;endArrow=none;endFill=0;startArrow=open;startFill=0;dashed=1;" parent="1" source="ExoZP2pjm8xdC1mCLj1y-5" target="ExoZP2pjm8xdC1mCLj1y-2" edge="1">
          <mxGeometry relative="1" as="geometry" />
        </mxCell>
        <mxCell id="ExoZP2pjm8xdC1mCLj1y-5" value="Data Source n" style="shape=datastore;whiteSpace=wrap;html=1;" parent="1" vertex="1">
          <mxGeometry x="60" y="410" width="60" height="60" as="geometry" />
        </mxCell>
        <mxCell id="ExoZP2pjm8xdC1mCLj1y-15" value="write" style="edgeStyle=orthogonalEdgeStyle;rounded=0;orthogonalLoop=1;jettySize=auto;html=1;dashed=1;" parent="1" source="ExoZP2pjm8xdC1mCLj1y-7" target="ExoZP2pjm8xdC1mCLj1y-9" edge="1">
          <mxGeometry relative="1" as="geometry" />
        </mxCell>
        <mxCell id="ExoZP2pjm8xdC1mCLj1y-7" value="&lt;b&gt;Ontology Platform&lt;/b&gt;&lt;br&gt;&lt;br&gt;Semantic representation of domain and data" style="rounded=0;whiteSpace=wrap;html=1;" parent="1" vertex="1">
          <mxGeometry x="470" y="250" width="160" height="350" as="geometry" />
        </mxCell>
        <mxCell id="ExoZP2pjm8xdC1mCLj1y-8" value="&lt;b&gt;Bridge&lt;/b&gt;&lt;br&gt;&lt;br&gt;Establishing linkage between mediator and ontology platform" style="rounded=0;whiteSpace=wrap;html=1;" parent="1" vertex="1">
          <mxGeometry x="340" y="360" width="130" height="130" as="geometry" />
        </mxCell>
        <mxCell id="ExoZP2pjm8xdC1mCLj1y-9" value="&lt;b&gt;Version Control System&lt;/b&gt;&lt;br&gt;&lt;br&gt;Keeping track of changes in the ontology" style="rounded=0;whiteSpace=wrap;html=1;dashed=1;dashPattern=8 8;" parent="1" vertex="1">
          <mxGeometry x="700" y="250" width="160" height="350" as="geometry" />
        </mxCell>
      </root>
    </mxGraphModel>
  </diagram>
  <diagram name="Refined Architecture" id="PL2O3CCkEyY1YrLMc9V4">
    <mxGraphModel dx="1434" dy="819" grid="1" gridSize="10" guides="1" tooltips="1" connect="1" arrows="1" fold="1" page="1" pageScale="1" pageWidth="827" pageHeight="1169" math="0" shadow="0">
      <root>
        <mxCell id="Rgq6pdU0_t05w7Zqnn-N-0" />
        <mxCell id="Rgq6pdU0_t05w7Zqnn-N-1" parent="Rgq6pdU0_t05w7Zqnn-N-0" />
        <mxCell id="Rgq6pdU0_t05w7Zqnn-N-2" value="" style="rounded=0;whiteSpace=wrap;html=1;strokeWidth=1;fillColor=#f5f5f5;fontColor=#333333;strokeColor=#666666;" parent="Rgq6pdU0_t05w7Zqnn-N-1" vertex="1">
          <mxGeometry x="30" y="150" width="860" height="490" as="geometry" />
        </mxCell>
        <mxCell id="Rgq6pdU0_t05w7Zqnn-N-3" value="" style="rounded=0;whiteSpace=wrap;html=1;dashed=1;dashPattern=1 2;fillColor=none;strokeColor=#b85450;strokeWidth=2;" parent="Rgq6pdU0_t05w7Zqnn-N-1" vertex="1">
          <mxGeometry x="450" y="170" width="200" height="450" as="geometry" />
        </mxCell>
        <mxCell id="Rgq6pdU0_t05w7Zqnn-N-4" value="&lt;b&gt;Mediator&lt;/b&gt;&lt;br&gt;&lt;br&gt;Connections to disjoint data w/out semantics&lt;br&gt;+&lt;br&gt;Transformation steps towards aggregated data w/out semantics" style="rounded=0;whiteSpace=wrap;html=1;" parent="Rgq6pdU0_t05w7Zqnn-N-1" vertex="1">
          <mxGeometry x="180" y="250" width="160" height="350" as="geometry" />
        </mxCell>
        <mxCell id="Rgq6pdU0_t05w7Zqnn-N-5" value="read" style="edgeStyle=orthogonalEdgeStyle;rounded=0;orthogonalLoop=1;jettySize=auto;html=1;entryX=0.013;entryY=0.143;entryDx=0;entryDy=0;entryPerimeter=0;endArrow=none;endFill=0;startArrow=open;startFill=0;dashed=1;" parent="Rgq6pdU0_t05w7Zqnn-N-1" source="Rgq6pdU0_t05w7Zqnn-N-6" target="Rgq6pdU0_t05w7Zqnn-N-4" edge="1">
          <mxGeometry relative="1" as="geometry" />
        </mxCell>
        <mxCell id="Rgq6pdU0_t05w7Zqnn-N-6" value="Data Source 1" style="shape=datastore;whiteSpace=wrap;html=1;" parent="Rgq6pdU0_t05w7Zqnn-N-1" vertex="1">
          <mxGeometry x="60" y="270" width="60" height="60" as="geometry" />
        </mxCell>
        <mxCell id="Rgq6pdU0_t05w7Zqnn-N-7" value="read" style="edgeStyle=orthogonalEdgeStyle;rounded=0;orthogonalLoop=1;jettySize=auto;html=1;entryX=0.006;entryY=0.343;entryDx=0;entryDy=0;entryPerimeter=0;endArrow=none;endFill=0;startArrow=open;startFill=0;dashed=1;" parent="Rgq6pdU0_t05w7Zqnn-N-1" source="Rgq6pdU0_t05w7Zqnn-N-8" target="Rgq6pdU0_t05w7Zqnn-N-4" edge="1">
          <mxGeometry relative="1" as="geometry" />
        </mxCell>
        <mxCell id="Rgq6pdU0_t05w7Zqnn-N-8" value="Data Source ..." style="shape=datastore;whiteSpace=wrap;html=1;" parent="Rgq6pdU0_t05w7Zqnn-N-1" vertex="1">
          <mxGeometry x="60" y="340" width="60" height="60" as="geometry" />
        </mxCell>
        <mxCell id="Rgq6pdU0_t05w7Zqnn-N-9" value="read" style="edgeStyle=orthogonalEdgeStyle;rounded=0;orthogonalLoop=1;jettySize=auto;html=1;exitX=1;exitY=0.5;exitDx=0;exitDy=0;entryX=0;entryY=0.543;entryDx=0;entryDy=0;entryPerimeter=0;endArrow=none;endFill=0;startArrow=open;startFill=0;dashed=1;" parent="Rgq6pdU0_t05w7Zqnn-N-1" source="Rgq6pdU0_t05w7Zqnn-N-10" target="Rgq6pdU0_t05w7Zqnn-N-4" edge="1">
          <mxGeometry relative="1" as="geometry" />
        </mxCell>
        <mxCell id="Rgq6pdU0_t05w7Zqnn-N-10" value="Data Source n" style="shape=datastore;whiteSpace=wrap;html=1;" parent="Rgq6pdU0_t05w7Zqnn-N-1" vertex="1">
          <mxGeometry x="60" y="410" width="60" height="60" as="geometry" />
        </mxCell>
        <mxCell id="Rgq6pdU0_t05w7Zqnn-N-11" value="write" style="edgeStyle=orthogonalEdgeStyle;rounded=0;orthogonalLoop=1;jettySize=auto;html=1;dashed=1;" parent="Rgq6pdU0_t05w7Zqnn-N-1" source="Rgq6pdU0_t05w7Zqnn-N-12" target="Rgq6pdU0_t05w7Zqnn-N-14" edge="1">
          <mxGeometry relative="1" as="geometry" />
        </mxCell>
        <mxCell id="Rgq6pdU0_t05w7Zqnn-N-12" value="&lt;b&gt;Ontology Platform&lt;/b&gt;&lt;br&gt;&lt;br&gt;Semantic representation of domain and data" style="rounded=0;whiteSpace=wrap;html=1;" parent="Rgq6pdU0_t05w7Zqnn-N-1" vertex="1">
          <mxGeometry x="470" y="250" width="160" height="350" as="geometry" />
        </mxCell>
        <mxCell id="Rgq6pdU0_t05w7Zqnn-N-13" value="&lt;b&gt;Bridge&lt;/b&gt;&lt;br&gt;&lt;br&gt;Establishing linkage between mediator and ontology platform" style="rounded=0;whiteSpace=wrap;html=1;" parent="Rgq6pdU0_t05w7Zqnn-N-1" vertex="1">
          <mxGeometry x="340" y="300" width="130" height="260" as="geometry" />
        </mxCell>
        <mxCell id="Rgq6pdU0_t05w7Zqnn-N-14" value="&lt;b&gt;Version Control System&lt;/b&gt;&lt;br&gt;&lt;br&gt;Keeping track of changes in the ontology" style="rounded=0;whiteSpace=wrap;html=1;" parent="Rgq6pdU0_t05w7Zqnn-N-1" vertex="1">
          <mxGeometry x="700" y="250" width="160" height="350" as="geometry" />
        </mxCell>
        <mxCell id="kG7yZINgO4lwBbbpLmqA-1" value="&lt;b&gt;Metaphactory&lt;/b&gt;" style="shape=cube;whiteSpace=wrap;html=1;boundedLbl=1;backgroundOutline=1;darkOpacity=0.05;darkOpacity2=0.1;strokeWidth=1;fillColor=#ffe6cc;strokeColor=#d79b00;" parent="Rgq6pdU0_t05w7Zqnn-N-1" vertex="1">
          <mxGeometry x="490" y="270" width="120" height="80" as="geometry" />
        </mxCell>
        <mxCell id="kG7yZINgO4lwBbbpLmqA-2" value="&lt;b&gt;GitHub&lt;/b&gt;" style="shape=cube;whiteSpace=wrap;html=1;boundedLbl=1;backgroundOutline=1;darkOpacity=0.05;darkOpacity2=0.1;strokeWidth=1;fillColor=#ffe6cc;strokeColor=#d79b00;" parent="Rgq6pdU0_t05w7Zqnn-N-1" vertex="1">
          <mxGeometry x="720" y="270" width="120" height="80" as="geometry" />
        </mxCell>
        <mxCell id="BiXsZzjK04wxS7GIcXck-0" value="&lt;i&gt;e.g., TrustRelay&lt;/i&gt;" style="shape=cube;whiteSpace=wrap;html=1;boundedLbl=1;backgroundOutline=1;darkOpacity=0.05;darkOpacity2=0.1;strokeWidth=1;fillColor=#ffe6cc;strokeColor=#d79b00;" parent="Rgq6pdU0_t05w7Zqnn-N-1" vertex="1">
          <mxGeometry x="200" y="270" width="120" height="80" as="geometry" />
        </mxCell>
        <mxCell id="o6Z-81ZnyknEe7Ag-fv3-1" value="&lt;i&gt;e.g., OntoText&lt;br&gt;Refine&lt;/i&gt;" style="shape=cube;whiteSpace=wrap;html=1;boundedLbl=1;backgroundOutline=1;darkOpacity=0.05;darkOpacity2=0.1;strokeWidth=1;fillColor=#ffe6cc;strokeColor=#d79b00;" parent="Rgq6pdU0_t05w7Zqnn-N-1" vertex="1">
          <mxGeometry x="345" y="270" width="120" height="80" as="geometry" />
        </mxCell>
        <mxCell id="IykrX3dgezaeLSW7Dehd-5" value="include" style="edgeStyle=orthogonalEdgeStyle;rounded=0;orthogonalLoop=1;jettySize=auto;html=1;entryX=0.957;entryY=0.205;entryDx=0;entryDy=0;entryPerimeter=0;dashed=1;startArrow=open;startFill=0;endArrow=none;endFill=0;" parent="Rgq6pdU0_t05w7Zqnn-N-1" source="IykrX3dgezaeLSW7Dehd-0" target="kG7yZINgO4lwBbbpLmqA-1" edge="1">
          <mxGeometry relative="1" as="geometry" />
        </mxCell>
        <mxCell id="IykrX3dgezaeLSW7Dehd-0" value="TOP" style="shape=note;whiteSpace=wrap;html=1;backgroundOutline=1;darkOpacity=0.05;strokeWidth=1;fillColor=#ffe6cc;size=16;strokeColor=#d79b00;fontStyle=1" parent="Rgq6pdU0_t05w7Zqnn-N-1" vertex="1">
          <mxGeometry x="580" y="180" width="50" height="60" as="geometry" />
        </mxCell>
        <mxCell id="IykrX3dgezaeLSW7Dehd-3" value="include" style="edgeStyle=orthogonalEdgeStyle;rounded=0;orthogonalLoop=1;jettySize=auto;html=1;entryX=0.043;entryY=0.04;entryDx=0;entryDy=0;entryPerimeter=0;dashed=1;startArrow=open;startFill=0;endArrow=none;endFill=0;" parent="Rgq6pdU0_t05w7Zqnn-N-1" source="IykrX3dgezaeLSW7Dehd-1" target="kG7yZINgO4lwBbbpLmqA-1" edge="1">
          <mxGeometry relative="1" as="geometry" />
        </mxCell>
        <mxCell id="IykrX3dgezaeLSW7Dehd-1" value="Org." style="shape=note;whiteSpace=wrap;html=1;backgroundOutline=1;darkOpacity=0.05;strokeWidth=1;fillColor=#ffe6cc;size=16;strokeColor=#d79b00;fontStyle=1" parent="Rgq6pdU0_t05w7Zqnn-N-1" vertex="1">
          <mxGeometry x="470" y="180" width="50" height="60" as="geometry" />
        </mxCell>
        <mxCell id="IykrX3dgezaeLSW7Dehd-4" value="include" style="edgeStyle=orthogonalEdgeStyle;rounded=0;orthogonalLoop=1;jettySize=auto;html=1;entryX=0.5;entryY=0.03;entryDx=0;entryDy=0;entryPerimeter=0;dashed=1;startArrow=open;startFill=0;endArrow=none;endFill=0;" parent="Rgq6pdU0_t05w7Zqnn-N-1" source="IykrX3dgezaeLSW7Dehd-2" target="kG7yZINgO4lwBbbpLmqA-1" edge="1">
          <mxGeometry relative="1" as="geometry" />
        </mxCell>
        <mxCell id="IykrX3dgezaeLSW7Dehd-2" value="ToCo" style="shape=note;whiteSpace=wrap;html=1;backgroundOutline=1;darkOpacity=0.05;strokeWidth=1;fillColor=#ffe6cc;size=16;strokeColor=#d79b00;fontStyle=1" parent="Rgq6pdU0_t05w7Zqnn-N-1" vertex="1">
          <mxGeometry x="525" y="180" width="50" height="60" as="geometry" />
        </mxCell>
      </root>
    </mxGraphModel>
  </diagram>
  <diagram name="Prototype Architecture" id="9Ysaeck1W7T-Z7wMWPLx">
    <mxGraphModel dx="1434" dy="819" grid="1" gridSize="10" guides="1" tooltips="1" connect="1" arrows="1" fold="1" page="1" pageScale="1" pageWidth="827" pageHeight="1169" math="0" shadow="0">
      <root>
        <mxCell id="SFmamrCels37dqnwrLCG-0" />
        <mxCell id="SFmamrCels37dqnwrLCG-1" parent="SFmamrCels37dqnwrLCG-0" />
        <mxCell id="SFmamrCels37dqnwrLCG-2" value="" style="rounded=0;whiteSpace=wrap;html=1;strokeWidth=1;fillColor=#f5f5f5;fontColor=#333333;strokeColor=#666666;" parent="SFmamrCels37dqnwrLCG-1" vertex="1">
          <mxGeometry x="50" y="150" width="840" height="490" as="geometry" />
        </mxCell>
        <mxCell id="SFmamrCels37dqnwrLCG-3" value="" style="rounded=0;whiteSpace=wrap;html=1;dashed=1;dashPattern=1 2;fillColor=none;strokeColor=#b85450;strokeWidth=2;" parent="SFmamrCels37dqnwrLCG-1" vertex="1">
          <mxGeometry x="80" y="170" width="570" height="450" as="geometry" />
        </mxCell>
        <mxCell id="SFmamrCels37dqnwrLCG-5" value="read" style="edgeStyle=orthogonalEdgeStyle;rounded=0;orthogonalLoop=1;jettySize=auto;html=1;entryX=0;entryY=0.5;entryDx=0;entryDy=0;endArrow=none;endFill=0;startArrow=open;startFill=0;dashed=1;exitX=1;exitY=0.5;exitDx=0;exitDy=0;" parent="SFmamrCels37dqnwrLCG-1" source="vASrQHyCaHuuVbY9DsZy-0" target="SFmamrCels37dqnwrLCG-13" edge="1">
          <mxGeometry relative="1" as="geometry">
            <mxPoint x="182.07999999999993" y="300.04999999999995" as="targetPoint" />
          </mxGeometry>
        </mxCell>
        <mxCell id="SFmamrCels37dqnwrLCG-8" value="Swisscom Data" style="shape=note;whiteSpace=wrap;html=1;size=11;" parent="SFmamrCels37dqnwrLCG-1" vertex="1">
          <mxGeometry x="110" y="510" width="60" height="70" as="geometry" />
        </mxCell>
        <mxCell id="SFmamrCels37dqnwrLCG-10" value="Lucerne Data" style="shape=note;whiteSpace=wrap;html=1;size=11;" parent="SFmamrCels37dqnwrLCG-1" vertex="1">
          <mxGeometry x="200" y="510" width="60" height="70" as="geometry" />
        </mxCell>
        <mxCell id="SFmamrCels37dqnwrLCG-11" value="write" style="edgeStyle=orthogonalEdgeStyle;rounded=0;orthogonalLoop=1;jettySize=auto;html=1;dashed=1;" parent="SFmamrCels37dqnwrLCG-1" source="SFmamrCels37dqnwrLCG-12" target="SFmamrCels37dqnwrLCG-14" edge="1">
          <mxGeometry relative="1" as="geometry" />
        </mxCell>
        <mxCell id="SFmamrCels37dqnwrLCG-12" value="&lt;b&gt;Ontology Platform&lt;/b&gt;&lt;br&gt;&lt;br&gt;Semantic representation of domain and data" style="rounded=0;whiteSpace=wrap;html=1;" parent="SFmamrCels37dqnwrLCG-1" vertex="1">
          <mxGeometry x="470" y="250" width="160" height="350" as="geometry" />
        </mxCell>
        <mxCell id="SFmamrCels37dqnwrLCG-13" value="&lt;b&gt;SPARQL Script Generator&lt;/b&gt;" style="rounded=0;whiteSpace=wrap;html=1;" parent="SFmamrCels37dqnwrLCG-1" vertex="1">
          <mxGeometry x="300" y="360" width="130" height="130" as="geometry" />
        </mxCell>
        <mxCell id="SFmamrCels37dqnwrLCG-14" value="&lt;b&gt;Version Control System&lt;/b&gt;&lt;br&gt;&lt;br&gt;Keeping track of changes in the ontology" style="rounded=0;whiteSpace=wrap;html=1;" parent="SFmamrCels37dqnwrLCG-1" vertex="1">
          <mxGeometry x="700" y="250" width="160" height="350" as="geometry" />
        </mxCell>
        <mxCell id="SFmamrCels37dqnwrLCG-15" value="&lt;b&gt;Metaphactory&lt;/b&gt;" style="shape=cube;whiteSpace=wrap;html=1;boundedLbl=1;backgroundOutline=1;darkOpacity=0.05;darkOpacity2=0.1;strokeWidth=1;fillColor=#ffe6cc;strokeColor=#d79b00;" parent="SFmamrCels37dqnwrLCG-1" vertex="1">
          <mxGeometry x="490" y="270" width="120" height="80" as="geometry" />
        </mxCell>
        <mxCell id="SFmamrCels37dqnwrLCG-16" value="&lt;b&gt;GitHub&lt;/b&gt;" style="shape=cube;whiteSpace=wrap;html=1;boundedLbl=1;backgroundOutline=1;darkOpacity=0.05;darkOpacity2=0.1;strokeWidth=1;fillColor=#ffe6cc;strokeColor=#d79b00;" parent="SFmamrCels37dqnwrLCG-1" vertex="1">
          <mxGeometry x="720" y="270" width="120" height="80" as="geometry" />
        </mxCell>
        <mxCell id="vASrQHyCaHuuVbY9DsZy-0" value="&lt;b&gt;MySQL DB&lt;/b&gt;" style="shape=datastore;whiteSpace=wrap;html=1;" parent="SFmamrCels37dqnwrLCG-1" vertex="1">
          <mxGeometry x="120" y="385" width="130" height="80" as="geometry" />
        </mxCell>
        <mxCell id="vASrQHyCaHuuVbY9DsZy-2" value="" style="endArrow=open;html=1;endSize=12;startArrow=diamondThin;startSize=14;startFill=0;edgeStyle=orthogonalEdgeStyle;align=left;verticalAlign=bottom;rounded=0;dashed=1;exitX=0.15;exitY=0.95;exitDx=0;exitDy=0;exitPerimeter=0;entryX=0.5;entryY=0;entryDx=0;entryDy=0;" parent="SFmamrCels37dqnwrLCG-1" source="vASrQHyCaHuuVbY9DsZy-0" target="SFmamrCels37dqnwrLCG-8" edge="1">
          <mxGeometry x="-1" y="3" relative="1" as="geometry">
            <mxPoint x="120" y="490" as="sourcePoint" />
            <mxPoint x="280" y="490" as="targetPoint" />
          </mxGeometry>
        </mxCell>
        <mxCell id="vASrQHyCaHuuVbY9DsZy-3" value="" style="endArrow=open;html=1;endSize=12;startArrow=diamondThin;startSize=14;startFill=0;edgeStyle=orthogonalEdgeStyle;align=left;verticalAlign=bottom;rounded=0;dashed=1;exitX=0.85;exitY=0.95;exitDx=0;exitDy=0;exitPerimeter=0;entryX=0.5;entryY=0;entryDx=0;entryDy=0;" parent="SFmamrCels37dqnwrLCG-1" source="vASrQHyCaHuuVbY9DsZy-0" target="SFmamrCels37dqnwrLCG-10" edge="1">
          <mxGeometry x="-0.6364" y="20" relative="1" as="geometry">
            <mxPoint x="200" y="490" as="sourcePoint" />
            <mxPoint x="214.5" y="539" as="targetPoint" />
            <mxPoint as="offset" />
          </mxGeometry>
        </mxCell>
        <mxCell id="3o-VIH0CQJou0u7Wnjio-0" value="include" style="edgeStyle=orthogonalEdgeStyle;rounded=0;orthogonalLoop=1;jettySize=auto;html=1;entryX=0.957;entryY=0.205;entryDx=0;entryDy=0;entryPerimeter=0;dashed=1;startArrow=open;startFill=0;endArrow=none;endFill=0;" parent="SFmamrCels37dqnwrLCG-1" source="3o-VIH0CQJou0u7Wnjio-1" edge="1">
          <mxGeometry relative="1" as="geometry">
            <mxPoint x="604.8400000000001" y="286.4" as="targetPoint" />
          </mxGeometry>
        </mxCell>
        <mxCell id="3o-VIH0CQJou0u7Wnjio-1" value="TOP" style="shape=note;whiteSpace=wrap;html=1;backgroundOutline=1;darkOpacity=0.05;strokeWidth=1;fillColor=#ffe6cc;size=16;strokeColor=#d79b00;fontStyle=1" parent="SFmamrCels37dqnwrLCG-1" vertex="1">
          <mxGeometry x="580" y="180" width="50" height="60" as="geometry" />
        </mxCell>
        <mxCell id="3o-VIH0CQJou0u7Wnjio-2" value="include" style="edgeStyle=orthogonalEdgeStyle;rounded=0;orthogonalLoop=1;jettySize=auto;html=1;entryX=0.043;entryY=0.04;entryDx=0;entryDy=0;entryPerimeter=0;dashed=1;startArrow=open;startFill=0;endArrow=none;endFill=0;" parent="SFmamrCels37dqnwrLCG-1" source="3o-VIH0CQJou0u7Wnjio-3" edge="1">
          <mxGeometry relative="1" as="geometry">
            <mxPoint x="495.1600000000001" y="273.19999999999993" as="targetPoint" />
          </mxGeometry>
        </mxCell>
        <mxCell id="3o-VIH0CQJou0u7Wnjio-3" value="Org." style="shape=note;whiteSpace=wrap;html=1;backgroundOutline=1;darkOpacity=0.05;strokeWidth=1;fillColor=#ffe6cc;size=16;strokeColor=#d79b00;fontStyle=1" parent="SFmamrCels37dqnwrLCG-1" vertex="1">
          <mxGeometry x="470" y="180" width="50" height="60" as="geometry" />
        </mxCell>
        <mxCell id="3o-VIH0CQJou0u7Wnjio-4" value="include" style="edgeStyle=orthogonalEdgeStyle;rounded=0;orthogonalLoop=1;jettySize=auto;html=1;entryX=0.5;entryY=0.03;entryDx=0;entryDy=0;entryPerimeter=0;dashed=1;startArrow=open;startFill=0;endArrow=none;endFill=0;" parent="SFmamrCels37dqnwrLCG-1" source="3o-VIH0CQJou0u7Wnjio-5" edge="1">
          <mxGeometry relative="1" as="geometry">
            <mxPoint x="550" y="272.4000000000001" as="targetPoint" />
          </mxGeometry>
        </mxCell>
        <mxCell id="3o-VIH0CQJou0u7Wnjio-5" value="ToCo" style="shape=note;whiteSpace=wrap;html=1;backgroundOutline=1;darkOpacity=0.05;strokeWidth=1;fillColor=#ffe6cc;size=16;strokeColor=#d79b00;fontStyle=1" parent="SFmamrCels37dqnwrLCG-1" vertex="1">
          <mxGeometry x="525" y="180" width="50" height="60" as="geometry" />
        </mxCell>
      </root>
    </mxGraphModel>
  </diagram>
  <diagram name="Architecture for Validation" id="-CynfzYFtM8VNJpeRUe1">
    <mxGraphModel dx="607" dy="819" grid="1" gridSize="10" guides="1" tooltips="1" connect="1" arrows="1" fold="1" page="1" pageScale="1" pageWidth="827" pageHeight="1169" math="0" shadow="0">
      <root>
        <mxCell id="8cWNduChXuMA9m9PhIBI-0" />
        <mxCell id="8cWNduChXuMA9m9PhIBI-1" parent="8cWNduChXuMA9m9PhIBI-0" />
        <mxCell id="Z_eAEt35iJ8CrINo93C5-0" value="" style="rounded=0;whiteSpace=wrap;html=1;strokeWidth=1;fillColor=#f5f5f5;fontColor=#333333;strokeColor=#666666;" vertex="1" parent="8cWNduChXuMA9m9PhIBI-1">
          <mxGeometry x="1010" y="150" width="860" height="490" as="geometry" />
        </mxCell>
        <mxCell id="Z_eAEt35iJ8CrINo93C5-1" value="" style="rounded=0;whiteSpace=wrap;html=1;dashed=1;dashPattern=1 2;fillColor=none;strokeColor=#b85450;strokeWidth=2;" vertex="1" parent="8cWNduChXuMA9m9PhIBI-1">
          <mxGeometry x="1430" y="170" width="200" height="450" as="geometry" />
        </mxCell>
        <mxCell id="Z_eAEt35iJ8CrINo93C5-2" value="&lt;b&gt;Mediator&lt;/b&gt;&lt;br&gt;&lt;br&gt;Connections to disjoint data w/out semantics&lt;br&gt;+&lt;br&gt;Transformation steps towards aggregated data w/out semantics" style="rounded=0;whiteSpace=wrap;html=1;" vertex="1" parent="8cWNduChXuMA9m9PhIBI-1">
          <mxGeometry x="1160" y="250" width="160" height="350" as="geometry" />
        </mxCell>
        <mxCell id="Z_eAEt35iJ8CrINo93C5-3" value="read" style="edgeStyle=orthogonalEdgeStyle;rounded=0;orthogonalLoop=1;jettySize=auto;html=1;entryX=0.013;entryY=0.143;entryDx=0;entryDy=0;entryPerimeter=0;endArrow=none;endFill=0;startArrow=open;startFill=0;dashed=1;" edge="1" parent="8cWNduChXuMA9m9PhIBI-1" source="Z_eAEt35iJ8CrINo93C5-4" target="Z_eAEt35iJ8CrINo93C5-2">
          <mxGeometry relative="1" as="geometry" />
        </mxCell>
        <mxCell id="Z_eAEt35iJ8CrINo93C5-4" value="Data Source 1" style="shape=datastore;whiteSpace=wrap;html=1;" vertex="1" parent="8cWNduChXuMA9m9PhIBI-1">
          <mxGeometry x="1040" y="270" width="60" height="60" as="geometry" />
        </mxCell>
        <mxCell id="Z_eAEt35iJ8CrINo93C5-5" value="read" style="edgeStyle=orthogonalEdgeStyle;rounded=0;orthogonalLoop=1;jettySize=auto;html=1;entryX=0.006;entryY=0.343;entryDx=0;entryDy=0;entryPerimeter=0;endArrow=none;endFill=0;startArrow=open;startFill=0;dashed=1;" edge="1" parent="8cWNduChXuMA9m9PhIBI-1" source="Z_eAEt35iJ8CrINo93C5-6" target="Z_eAEt35iJ8CrINo93C5-2">
          <mxGeometry relative="1" as="geometry" />
        </mxCell>
        <mxCell id="Z_eAEt35iJ8CrINo93C5-6" value="Data Source ..." style="shape=datastore;whiteSpace=wrap;html=1;" vertex="1" parent="8cWNduChXuMA9m9PhIBI-1">
          <mxGeometry x="1040" y="340" width="60" height="60" as="geometry" />
        </mxCell>
        <mxCell id="Z_eAEt35iJ8CrINo93C5-7" value="read" style="edgeStyle=orthogonalEdgeStyle;rounded=0;orthogonalLoop=1;jettySize=auto;html=1;exitX=1;exitY=0.5;exitDx=0;exitDy=0;entryX=0;entryY=0.543;entryDx=0;entryDy=0;entryPerimeter=0;endArrow=none;endFill=0;startArrow=open;startFill=0;dashed=1;" edge="1" parent="8cWNduChXuMA9m9PhIBI-1" source="Z_eAEt35iJ8CrINo93C5-8" target="Z_eAEt35iJ8CrINo93C5-2">
          <mxGeometry relative="1" as="geometry" />
        </mxCell>
        <mxCell id="Z_eAEt35iJ8CrINo93C5-8" value="Data Source n" style="shape=datastore;whiteSpace=wrap;html=1;" vertex="1" parent="8cWNduChXuMA9m9PhIBI-1">
          <mxGeometry x="1040" y="410" width="60" height="60" as="geometry" />
        </mxCell>
        <mxCell id="Z_eAEt35iJ8CrINo93C5-9" value="write" style="edgeStyle=orthogonalEdgeStyle;rounded=0;orthogonalLoop=1;jettySize=auto;html=1;dashed=1;" edge="1" parent="8cWNduChXuMA9m9PhIBI-1" source="Z_eAEt35iJ8CrINo93C5-10" target="Z_eAEt35iJ8CrINo93C5-12">
          <mxGeometry relative="1" as="geometry" />
        </mxCell>
        <mxCell id="Z_eAEt35iJ8CrINo93C5-10" value="&lt;b&gt;Ontology Platform&lt;/b&gt;&lt;br&gt;&lt;br&gt;Semantic representation of domain and data" style="rounded=0;whiteSpace=wrap;html=1;" vertex="1" parent="8cWNduChXuMA9m9PhIBI-1">
          <mxGeometry x="1450" y="250" width="160" height="350" as="geometry" />
        </mxCell>
        <mxCell id="Z_eAEt35iJ8CrINo93C5-11" value="&lt;b&gt;Bridge&lt;/b&gt;&lt;br&gt;&lt;br&gt;Establishing linkage between mediator and ontology platform" style="rounded=0;whiteSpace=wrap;html=1;" vertex="1" parent="8cWNduChXuMA9m9PhIBI-1">
          <mxGeometry x="1320" y="300" width="130" height="260" as="geometry" />
        </mxCell>
        <mxCell id="Z_eAEt35iJ8CrINo93C5-12" value="&lt;b&gt;Version Control System&lt;/b&gt;&lt;br&gt;&lt;br&gt;Keeping track of changes in the ontology" style="rounded=0;whiteSpace=wrap;html=1;" vertex="1" parent="8cWNduChXuMA9m9PhIBI-1">
          <mxGeometry x="1680" y="250" width="160" height="350" as="geometry" />
        </mxCell>
        <mxCell id="Z_eAEt35iJ8CrINo93C5-13" value="&lt;b&gt;Metaphactory&lt;/b&gt;" style="shape=cube;whiteSpace=wrap;html=1;boundedLbl=1;backgroundOutline=1;darkOpacity=0.05;darkOpacity2=0.1;strokeWidth=1;fillColor=#ffe6cc;strokeColor=#d79b00;" vertex="1" parent="8cWNduChXuMA9m9PhIBI-1">
          <mxGeometry x="1470" y="270" width="120" height="80" as="geometry" />
        </mxCell>
        <mxCell id="Z_eAEt35iJ8CrINo93C5-14" value="&lt;b&gt;GitHub&lt;/b&gt;" style="shape=cube;whiteSpace=wrap;html=1;boundedLbl=1;backgroundOutline=1;darkOpacity=0.05;darkOpacity2=0.1;strokeWidth=1;fillColor=#ffe6cc;strokeColor=#d79b00;" vertex="1" parent="8cWNduChXuMA9m9PhIBI-1">
          <mxGeometry x="1700" y="270" width="120" height="80" as="geometry" />
        </mxCell>
        <mxCell id="Z_eAEt35iJ8CrINo93C5-15" value="&lt;i&gt;e.g., TrustRelay&lt;/i&gt;" style="shape=cube;whiteSpace=wrap;html=1;boundedLbl=1;backgroundOutline=1;darkOpacity=0.05;darkOpacity2=0.1;strokeWidth=1;fillColor=#ffe6cc;strokeColor=#d79b00;" vertex="1" parent="8cWNduChXuMA9m9PhIBI-1">
          <mxGeometry x="1180" y="270" width="120" height="80" as="geometry" />
        </mxCell>
        <mxCell id="Z_eAEt35iJ8CrINo93C5-16" value="&lt;i&gt;e.g., OntoText&lt;br&gt;Refine&lt;/i&gt;" style="shape=cube;whiteSpace=wrap;html=1;boundedLbl=1;backgroundOutline=1;darkOpacity=0.05;darkOpacity2=0.1;strokeWidth=1;fillColor=#ffe6cc;strokeColor=#d79b00;" vertex="1" parent="8cWNduChXuMA9m9PhIBI-1">
          <mxGeometry x="1325" y="270" width="120" height="80" as="geometry" />
        </mxCell>
        <mxCell id="Z_eAEt35iJ8CrINo93C5-17" value="include" style="edgeStyle=orthogonalEdgeStyle;rounded=0;orthogonalLoop=1;jettySize=auto;html=1;entryX=0.957;entryY=0.205;entryDx=0;entryDy=0;entryPerimeter=0;dashed=1;startArrow=open;startFill=0;endArrow=none;endFill=0;" edge="1" parent="8cWNduChXuMA9m9PhIBI-1" source="Z_eAEt35iJ8CrINo93C5-18" target="Z_eAEt35iJ8CrINo93C5-13">
          <mxGeometry relative="1" as="geometry" />
        </mxCell>
        <mxCell id="Z_eAEt35iJ8CrINo93C5-18" value="TOP" style="shape=note;whiteSpace=wrap;html=1;backgroundOutline=1;darkOpacity=0.05;strokeWidth=1;fillColor=#ffe6cc;size=16;strokeColor=#d79b00;fontStyle=1" vertex="1" parent="8cWNduChXuMA9m9PhIBI-1">
          <mxGeometry x="1560" y="180" width="50" height="60" as="geometry" />
        </mxCell>
        <mxCell id="Z_eAEt35iJ8CrINo93C5-19" value="include" style="edgeStyle=orthogonalEdgeStyle;rounded=0;orthogonalLoop=1;jettySize=auto;html=1;entryX=0.043;entryY=0.04;entryDx=0;entryDy=0;entryPerimeter=0;dashed=1;startArrow=open;startFill=0;endArrow=none;endFill=0;" edge="1" parent="8cWNduChXuMA9m9PhIBI-1" source="Z_eAEt35iJ8CrINo93C5-20" target="Z_eAEt35iJ8CrINo93C5-13">
          <mxGeometry relative="1" as="geometry" />
        </mxCell>
        <mxCell id="Z_eAEt35iJ8CrINo93C5-20" value="Org." style="shape=note;whiteSpace=wrap;html=1;backgroundOutline=1;darkOpacity=0.05;strokeWidth=1;fillColor=#ffe6cc;size=16;strokeColor=#d79b00;fontStyle=1" vertex="1" parent="8cWNduChXuMA9m9PhIBI-1">
          <mxGeometry x="1450" y="180" width="50" height="60" as="geometry" />
        </mxCell>
        <mxCell id="Z_eAEt35iJ8CrINo93C5-21" value="include" style="edgeStyle=orthogonalEdgeStyle;rounded=0;orthogonalLoop=1;jettySize=auto;html=1;entryX=0.5;entryY=0.03;entryDx=0;entryDy=0;entryPerimeter=0;dashed=1;startArrow=open;startFill=0;endArrow=none;endFill=0;" edge="1" parent="8cWNduChXuMA9m9PhIBI-1" source="Z_eAEt35iJ8CrINo93C5-22" target="Z_eAEt35iJ8CrINo93C5-13">
          <mxGeometry relative="1" as="geometry" />
        </mxCell>
        <mxCell id="Z_eAEt35iJ8CrINo93C5-22" value="ToCo" style="shape=note;whiteSpace=wrap;html=1;backgroundOutline=1;darkOpacity=0.05;strokeWidth=1;fillColor=#ffe6cc;size=16;strokeColor=#d79b00;fontStyle=1" vertex="1" parent="8cWNduChXuMA9m9PhIBI-1">
          <mxGeometry x="1505" y="180" width="50" height="60" as="geometry" />
        </mxCell>
        <mxCell id="Z_eAEt35iJ8CrINo93C5-23" style="edgeStyle=orthogonalEdgeStyle;orthogonalLoop=1;jettySize=auto;html=1;exitX=1;exitY=0.7;exitDx=0;exitDy=0;entryX=0.063;entryY=0.546;entryDx=0;entryDy=0;entryPerimeter=0;curved=1;strokeWidth=3;dashed=1;fillColor=#d5e8d4;strokeColor=#82b366;endArrow=classic;endFill=1;" edge="1" parent="8cWNduChXuMA9m9PhIBI-1">
          <mxGeometry relative="1" as="geometry">
            <mxPoint x="1270" y="510" as="sourcePoint" />
            <mxPoint x="1500" y="510" as="targetPoint" />
            <Array as="points">
              <mxPoint x="1270" y="539" />
              <mxPoint x="1500" y="539" />
            </Array>
          </mxGeometry>
        </mxCell>
        <mxCell id="Z_eAEt35iJ8CrINo93C5-24" value="&lt;font style=&quot;font-size: 18px;&quot;&gt;&lt;b&gt;1&lt;/b&gt;&lt;/font&gt;" style="ellipse;whiteSpace=wrap;html=1;aspect=fixed;fillColor=#d5e8d4;strokeColor=#82b366;fontColor=#82b366;" vertex="1" parent="8cWNduChXuMA9m9PhIBI-1">
          <mxGeometry x="1505" y="327.5" width="50" height="50" as="geometry" />
        </mxCell>
        <mxCell id="Z_eAEt35iJ8CrINo93C5-25" value="&lt;font style=&quot;font-size: 18px;&quot;&gt;&lt;b&gt;3&lt;/b&gt;&lt;/font&gt;" style="ellipse;whiteSpace=wrap;html=1;aspect=fixed;fillColor=#d5e8d4;strokeColor=#82b366;fontColor=#82b366;" vertex="1" parent="8cWNduChXuMA9m9PhIBI-1">
          <mxGeometry x="1130" y="377.5" width="50" height="50" as="geometry" />
        </mxCell>
        <mxCell id="Z_eAEt35iJ8CrINo93C5-26" value="&lt;font style=&quot;font-size: 18px;&quot;&gt;&lt;b&gt;4&lt;/b&gt;&lt;/font&gt;" style="ellipse;whiteSpace=wrap;html=1;aspect=fixed;fillColor=#d5e8d4;strokeColor=#82b366;fontColor=#82b366;" vertex="1" parent="8cWNduChXuMA9m9PhIBI-1">
          <mxGeometry x="1215" y="327.5" width="50" height="50" as="geometry" />
        </mxCell>
        <mxCell id="Z_eAEt35iJ8CrINo93C5-27" value="&lt;font style=&quot;font-size: 18px;&quot;&gt;&lt;b&gt;2&lt;/b&gt;&lt;/font&gt;" style="ellipse;whiteSpace=wrap;html=1;aspect=fixed;fillColor=#d5e8d4;strokeColor=#82b366;fontColor=#82b366;" vertex="1" parent="8cWNduChXuMA9m9PhIBI-1">
          <mxGeometry x="1735" y="327.5" width="50" height="50" as="geometry" />
        </mxCell>
        <mxCell id="Z_eAEt35iJ8CrINo93C5-28" value="&lt;font style=&quot;font-size: 18px;&quot;&gt;&lt;b&gt;5&lt;/b&gt;&lt;/font&gt;" style="ellipse;whiteSpace=wrap;html=1;aspect=fixed;fillColor=#d5e8d4;strokeColor=#82b366;fontColor=#82b366;" vertex="1" parent="8cWNduChXuMA9m9PhIBI-1">
          <mxGeometry x="1360" y="480" width="50" height="50" as="geometry" />
        </mxCell>
      </root>
    </mxGraphModel>
  </diagram>
</mxfile>
